<?xml version="1.0" encoding="UTF-8" standalone="no"?>
<!-- Generator: Adobe Illustrator 16.0.0, SVG Export Plug-In . SVG Version: 6.00 Build 0)  -->

<svg
   xmlns:dc="http://purl.org/dc/elements/1.1/"
   xmlns:cc="http://creativecommons.org/ns#"
   xmlns:rdf="http://www.w3.org/1999/02/22-rdf-syntax-ns#"
   xmlns:svg="http://www.w3.org/2000/svg"
   xmlns="http://www.w3.org/2000/svg"
   xmlns:sodipodi="http://sodipodi.sourceforge.net/DTD/sodipodi-0.dtd"
   xmlns:inkscape="http://www.inkscape.org/namespaces/inkscape"
   version="1.1"
   id="Layer_1"
   x="0px"
   y="0px"
   width="60"
   height="90"
   viewBox="0 0 60 90"
   xml:space="preserve"
   inkscape:version="0.48.4 r9939"
   sodipodi:docname="sadface.svg"><metadata
   id="metadata39"><rdf:RDF><cc:Work
       rdf:about=""><dc:format>image/svg+xml</dc:format><dc:type
         rdf:resource="http://purl.org/dc/dcmitype/StillImage" /></cc:Work></rdf:RDF></metadata><defs
   id="defs37">
	
	

		
	
		
		
		
		
	
			
		
			
		
			
		
			
		</defs><sodipodi:namedview
   pagecolor="#ffffff"
   bordercolor="#666666"
   borderopacity="1"
   objecttolerance="10"
   gridtolerance="10"
   guidetolerance="10"
   inkscape:pageopacity="0"
   inkscape:pageshadow="2"
   inkscape:window-width="1920"
   inkscape:window-height="1018"
   id="namedview35"
   showgrid="false"
   inkscape:zoom="3.9333333"
   inkscape:cx="38.516949"
   inkscape:cy="50.338983"
   inkscape:window-x="-8"
   inkscape:window-y="-8"
   inkscape:window-maximized="1"
   inkscape:current-layer="Layer_1" />
<style
   type="text/css"
   id="style3">

	.st0{fill:none;stroke:#231F20;stroke-width:1.5;stroke-linecap:round;stroke-linejoin:round;stroke-miterlimit:10;}

</style>

<g
   id="g3061"><g
     style="stroke:#b3b3b3"
     transform="translate(0,10)"
     id="g11">
				<circle
   class="st0"
   cx="30"
   cy="30"
   r="29"
   id="circle13"
   sodipodi:cx="30"
   sodipodi:cy="30"
   sodipodi:rx="29"
   sodipodi:ry="29"
   style="fill:none;stroke:#b3b3b3;stroke-width:1.50000000000000000;stroke-linecap:round;stroke-linejoin:round;stroke-miterlimit:10"
   d="M 59,30 C 59,46.016258 46.016258,59 30,59 13.983742,59 1,46.016258 1,30 1,13.983742 13.983742,1 30,1 46.016258,1 59,13.983742 59,30 z" />
			</g><g
     style="stroke:#b3b3b3"
     transform="translate(0,10)"
     id="g17">
				<g
   style="stroke:#b3b3b3"
   id="g19">
					<path
   class="st0"
   d="m 44.65,44.335 0,0 C 36.545,36.06 23.325,36.097 15.268,44.422"
   id="path21"
   inkscape:connector-curvature="0"
   style="fill:none;stroke:#b3b3b3;stroke-width:1.50000000000000000;stroke-linecap:round;stroke-linejoin:round;stroke-miterlimit:10" />
				</g>
			</g><circle
     transform="translate(0,10)"
     class="st0"
     cx="21.188"
     cy="20"
     r="4.5549998"
     id="circle25"
     sodipodi:cx="21.188"
     sodipodi:cy="20"
     sodipodi:rx="4.5549998"
     sodipodi:ry="4.5549998"
     style="fill:none;stroke:#b3b3b3;stroke-width:1.50000000000000000;stroke-linecap:round;stroke-linejoin:round;stroke-miterlimit:10"
     d="m 25.743,20 c 0,2.515657 -2.039343,4.555 -4.555,4.555 -2.515657,0 -4.555,-2.039343 -4.555,-4.555 0,-2.515657 2.039343,-4.555 4.555,-4.555 2.515657,0 4.555,2.039343 4.555,4.555 z" /><circle
     transform="translate(0,10)"
     class="st0"
     cx="38.405998"
     cy="20"
     r="4.5549998"
     id="circle29"
     sodipodi:cx="38.405998"
     sodipodi:cy="20"
     sodipodi:rx="4.5549998"
     sodipodi:ry="4.5549998"
     style="fill:none;stroke:#b3b3b3;stroke-width:1.50000000000000000;stroke-linecap:round;stroke-linejoin:round;stroke-miterlimit:10"
     d="m 42.960998,20 c 0,2.515657 -2.039343,4.555 -4.555,4.555 -2.515657,0 -4.555,-2.039343 -4.555,-4.555 0,-2.515657 2.039343,-4.555 4.555,-4.555 2.515657,0 4.555,2.039343 4.555,4.555 z" /><path
     style="fill:none;stroke:#b3b3b3;stroke-width:1.50000000000000000;stroke-linecap:round;stroke-linejoin:round;stroke-miterlimit:10"
     inkscape:connector-curvature="0"
     id="path33"
     d="m 44.59,35.676 c 0,0 -3.368,4.146 -3.368,8.423 0,1.859 1.507,3.366 3.368,3.366 1.862,0 3.369,-1.507 3.369,-3.366 0,-2.074 -3.369,-8.423 -3.369,-8.423 z"
     class="st0" /><text
     sodipodi:linespacing="100%"
     id="text3016"
     y="78.237289"
     x="30.611925"
     style="font-size:40px;font-style:normal;font-weight:normal;line-height:100%;letter-spacing:0px;word-spacing:0px;fill:#b3b3b3;fill-opacity:1;stroke:none;font-family:Sans"
     xml:space="preserve"><tspan
       id="tspan3022"
       style="font-size:8px;font-style:normal;font-variant:normal;font-weight:normal;font-stretch:normal;text-align:center;line-height:100%;text-anchor:middle;font-family:Arial;-inkscape-font-specification:Arial;fill:#b3b3b3"
       y="78.237289"
       x="30.611925"
       sodipodi:role="line">No description</tspan></text>
</g></svg>